<?xml version="1.0" encoding="UTF-8"?><svg id="Layer_1" xmlns="http://www.w3.org/2000/svg" xmlns:xlink="http://www.w3.org/1999/xlink" viewBox="0 0 16 16"><defs><style>.cls-1{clip-path:url(#clippath);}.cls-2{fill:none;}.cls-2,.cls-3,.cls-4,.cls-5,.cls-6{stroke-width:0px;}.cls-3{fill:#226db4;opacity:.1;}.cls-7{opacity:.15;}.cls-4{fill:#606aea;}.cls-5{fill:#1b1464;}.cls-6{fill:#fff;}</style><clipPath id="clippath"><rect class="cls-2" width="16" height="16"/></clipPath></defs><g class="cls-1"><rect class="cls-4" y="3.23" width="12.19" height="11.05" rx="1.3" ry="1.3"/><g class="cls-7"><path class="cls-5" d="m3.63,7.61h.98c0,.27.22.49.49.49h.49c.27,0,.49-.22.49-.49h3.43c.14,0,.24-.11.24-.24s-.11-.24-.24-.24h-3.43c0-.27-.22-.49-.49-.49h-.49c-.27,0-.49.22-.49.49h-.98c-.14,0-.24.11-.24.24s.11.24.24.24Z"/><path class="cls-5" d="m9.51,9.07h-1.47c0-.27-.22-.49-.49-.49h-.49c-.27,0-.49.22-.49.49h-2.94c-.14,0-.24.11-.24.24s.11.24.24.24h2.94c0,.27.22.49.49.49h.49c.27,0,.49-.22.49-.49h1.47c.14,0,.24-.11.24-.24s-.11-.24-.24-.24Z"/><path class="cls-5" d="m9.51,11.03h-3.43c0-.27-.22-.49-.49-.49h-.49c-.27,0-.49.22-.49.49h-.98c-.14,0-.24.11-.24.24s.11.24.24.24h.98c0,.27.22.49.49.49h.49c.27,0,.49-.22.49-.49h3.43c.14,0,.24-.11.24-.24s-.11-.24-.24-.24Z"/></g><path class="cls-6" d="m3.35,7.32h.98c0,.27.22.49.49.49h.49c.27,0,.49-.22.49-.49h3.43c.14,0,.24-.11.24-.24s-.11-.24-.24-.24h-3.43c0-.27-.22-.49-.49-.49h-.49c-.27,0-.49.22-.49.49h-.98c-.14,0-.24.11-.24.24s.11.24.24.24Z"/><path class="cls-6" d="m9.22,8.79h-1.47c0-.27-.22-.49-.49-.49h-.49c-.27,0-.49.22-.49.49h-2.94c-.14,0-.24.11-.24.24s.11.24.24.24h2.94c0,.27.22.49.49.49h.49c.27,0,.49-.22.49-.49h1.47c.14,0,.24-.11.24-.24s-.11-.24-.24-.24Z"/><path class="cls-6" d="m9.22,10.75h-3.43c0-.27-.22-.49-.49-.49h-.49c-.27,0-.49.22-.49.49h-.98c-.14,0-.24.11-.24.24s.11.24.24.24h.98c0,.27.22.49.49.49h.49c.27,0,.49-.22.49-.49h3.43c.14,0,.24-.11.24-.24s-.11-.24-.24-.24Z"/><path class="cls-5" d="m9.24,2.64c-1.56,1.54-1.58,4.06-.04,5.62.67.68,1.55,1.09,2.48,1.17v.89s-.33,0-.33,0c-.18,0-.32.14-.32.32l-.02,3.55c0,.18.14.32.32.32h1.28c.18,0,.32-.13.32-.31l.02-3.55c0-.18-.14-.32-.32-.32h-.32s0-.89,0-.89c.94-.07,1.82-.46,2.5-1.13,1.56-1.54,1.58-4.06.04-5.62s-4.06-1.58-5.62-.04h0Z"/><path class="cls-6" d="m13.04,6.13c-.05.01-.09.02-.14.02-.43,0-1.07-1.52-1.07-2.03,0-.19.04-.25.11-.3-.53.06-1.17.26-1.38.51-.04.06-.07.16-.07.28,0,.79.84,2.58,1.44,2.58.28,0,.74-.45,1.12-1.06"/><path class="cls-6" d="m12.76,3.77c.55,0,1.1.09,1.1.4,0,.63-.4,1.39-.6,1.39-.36,0-.82-1.01-.82-1.52,0-.23.09-.27.32-.27"/></g><rect class="cls-3" width="16" height="16"/></svg>